<svg width="500" height="500" viewBox="0 0 500 500" xmlns="http://www.w3.org/2000/svg">
  <defs>
    <pattern id="wave-pattern" x="0" y="0" width="100" height="100" patternUnits="userSpaceOnUse">
      <path d="M0,50 C20,30 30,30 50,50 C70,70 80,70 100,50 C120,30 130,30 150,50 C170,70 180,70 200,50" 
            stroke="#FAD0CC" stroke-width="2" fill="none" transform="translate(-50, 0)" />
      <path d="M0,50 C20,30 30,30 50,50 C70,70 80,70 100,50 C120,30 130,30 150,50 C170,70 180,70 200,50" 
            stroke="#FAD0CC" stroke-width="2" fill="none" transform="translate(-50, 25)" />
      <path d="M0,50 C20,30 30,30 50,50 C70,70 80,70 100,50 C120,30 130,30 150,50 C170,70 180,70 200,50" 
            stroke="#FAD0CC" stroke-width="2" fill="none" transform="translate(-50, 50)" />
      <path d="M0,50 C20,30 30,30 50,50 C70,70 80,70 100,50 C120,30 130,30 150,50 C170,70 180,70 200,50" 
            stroke="#FAD0CC" stroke-width="2" fill="none" transform="translate(-50, 75)" />
    </pattern>
  </defs>
  <rect x="0" y="0" width="500" height="500" fill="url(#wave-pattern)" />
</svg>
